HIERARCHY
ROOT Hips
{
	OFFSET 0.00000 0.00000 0.00000
	CHANNELS 6 Xposition Yposition Zposition Zrotation Yrotation Xrotation 
	JOINT LHipJoint
	{
		OFFSET 0 0 0
		CHANNELS 3 Zrotation Yrotation Xrotation
		JOINT LeftHip
		{
			OFFSET 1.62964 -1.40469 0.78906
			CHANNELS 3 Zrotation Yrotation Xrotation
			JOINT LeftKnee
			{
				OFFSET 2.29640 -6.30932 0.00000
				CHANNELS 3 Zrotation Yrotation Xrotation
				JOINT LeftAnkle
				{
					OFFSET 2.29451 -6.30412 0.00000
					CHANNELS 3 Zrotation Yrotation Xrotation
					JOINT LeftToe
					{
						OFFSET 0.03611 -0.09921 1.56387
						CHANNELS 3 Zrotation Yrotation Xrotation
						End Site
						{
							OFFSET 0.00000 -0.00000 0.80291
						}
					}
				}
			}
		}
	}
	JOINT RHipJoint
	{
		OFFSET 0 0 0
		CHANNELS 3 Zrotation Yrotation Xrotation
		JOINT RightHip
		{
			OFFSET -1.73712 -1.40469 0.78906
			CHANNELS 3 Zrotation Yrotation Xrotation
			JOINT RightKnee
			{
				OFFSET -2.28137 -6.26801 0.00000
				CHANNELS 3 Zrotation Yrotation Xrotation
				JOINT RightAnkle
				{
					OFFSET -2.28681 -6.28298 0.00000
					CHANNELS 3 Zrotation Yrotation Xrotation
					JOINT RightToe
					{
						OFFSET -0.15927 -0.43759 1.61103
						CHANNELS 3 Zrotation Yrotation Xrotation
						End Site
						{
							OFFSET -0.00000 -0.00000 0.84630
						}
					}
				}
			}
		}
	}
	JOINT lowerback
	{
		OFFSET 0 0 0
		CHANNELS 3 Zrotation Yrotation Xrotation
		JOINT Chest
		{
			OFFSET -0.04227 2.04338 -0.00225
			CHANNELS 3 Zrotation Yrotation Xrotation
			JOINT Chest2
			{
				OFFSET -0.02148 2.04482 -0.04273
				CHANNELS 3 Zrotation Yrotation Xrotation
				JOINT lowerneck
				{
					OFFSET 0 0 0
					CHANNELS 3 Zrotation Yrotation Xrotation
					JOINT Neck
					{
						OFFSET 0.09180 1.44629 0.19359
						CHANNELS 3 Zrotation Yrotation Xrotation
						JOINT Head
						{
							OFFSET 0.00887 1.40645 0.14750
							CHANNELS 3 Zrotation Yrotation Xrotation
							End Site
							{
								OFFSET -0.00669 1.50671 0.03707
							}
						}
					}
				}
				JOINT LeftCollar
				{
					OFFSET 0 0 0
					CHANNELS 3 Zrotation Yrotation Xrotation
					JOINT LeftShoulder
					{
						OFFSET 2.17674 1.86763 -0.06520
CHANNELS 3 Zrotation Xrotation Yrotation
						JOINT LeftElbow
						{
OFFSET 0 -4.657760 0.000000
CHANNELS 3 Zrotation Xrotation Yrotation
							JOINT LeftWrist
							{
OFFSET 0 -3.555390 0.000000
CHANNELS 3 Zrotation Xrotation Yrotation
								JOINT lhand
								{
									OFFSET 0 0 0
CHANNELS 3 Zrotation Xrotation Yrotation
									JOINT LFingers
									{
OFFSET 0 -0.707260 0.000000
CHANNELS 3 Zrotation Xrotation Yrotation
										End Site
										{
OFFSET 0 -0.570220 0.000000
										}
									}
								}
								JOINT LThumb
								{
OFFSET 0 0.000000 0.000000
CHANNELS 3 Zrotation Xrotation Yrotation
									End Site
									{
OFFSET 0 -0.578920 0.578920
									}
								}
							}
						}
					}
				}
				JOINT RightCollar
				{
					OFFSET 0 0 0
					CHANNELS 3 Zrotation Yrotation Xrotation
					JOINT RightShoulder
					{
						OFFSET -2.80694 1.55459 -0.32496
CHANNELS 3 Zrotation Xrotation Yrotation
						JOINT RightElbow
						{
OFFSET 0 -4.719250 -0.000000
CHANNELS 3 Zrotation Xrotation Yrotation
							JOINT RightWrist
							{
OFFSET 0 -3.569900 0.000000
CHANNELS 3 Zrotation Xrotation Yrotation
								JOINT rhand
								{
									OFFSET 0 0 0
CHANNELS 3 Zrotation Xrotation Yrotation
									JOINT RFingers
									{
OFFSET 0 -0.507760 0.000000
CHANNELS 3 Zrotation Xrotation Yrotation
										End Site
										{
OFFSET 0 -0.409370 0.000000
										}
									}
								}
								JOINT RThumb
								{
OFFSET 0 0.000000 0.000000
CHANNELS 3 Zrotation Xrotation Yrotation
									End Site
									{
OFFSET 0 -0.415620 0.415620
									}
								}
							}
						}
					}
				}
			}
		}
	}
}
MOTION
Frames: 6
Frame Time: 0.008333333333333333
10.250199 16.470767 4.493890 177.531669 -3.224195 -158.193451 0.000000 0.000000 0.000000 -9.196997 -22.266563 -71.376467 21.168304 19.967246 93.417742 1.004743 -1.339929 -18.543685 1.610835 -8.003506 -22.724653 0.000000 0.000000 0.000000 18.754392 14.409905 -23.322466 -0.389783 -4.009053 11.102081 -0.757515 -0.196863 -16.522306 -2.069094 9.008466 -25.821848 -4.968877 -1.565233 -18.170090 0.353710 -0.982423 3.599012 2.931415 -0.900187 14.472147 -0.319719 -1.277058 -5.343398 2.282346 -3.744632 21.775859 0.426574 -2.154262 7.615066 0.000000 0.000000 0.000000 5.620160 5.298711 -24.956233 19.918399 -30.543832 5.489812 20.962899 -4.300378 12.236496 0.000000 0.000000 0.000000 -7.125000 0.000000 0.000000 -4.350705 16.928690 -2.903728 0.000000 0.000000 0.000000 -1.060255 2.807444 13.813385 -24.826508 -36.026128 -8.187642 -13.168974 4.528136 51.791420 0.000000 0.000000 0.000000 7.125000 0.000000 0.000000 61.680302 75.775203 -48.129096
10.255286 16.484637 4.408885 177.565848 -3.227115 -158.266477 0.000000 0.000000 0.000000 -8.328285 -22.535322 -73.728492 21.148513 19.968334 93.359677 1.023536 -0.999921 -18.815833 2.021140 -8.906478 -25.505601 0.000000 0.000000 0.000000 18.969360 14.372485 -22.654991 -0.366592 -3.888842 10.764113 -0.765823 -0.359348 -16.671793 -2.147617 9.166735 -26.318503 -4.905164 -1.467921 -17.875772 0.283669 -0.874354 3.613860 2.850469 -0.837949 14.298160 -0.612570 -1.257709 -5.025517 2.857110 -3.828076 21.725444 0.660736 -2.181260 7.559457 0.000000 0.000000 0.000000 5.623406 5.414787 -24.694687 19.734608 -30.321210 5.396713 20.569984 -3.781181 12.284553 0.000000 0.000000 0.000000 -7.125000 0.000000 0.000000 -4.625762 16.913263 -3.089497 0.000000 0.000000 0.000000 -1.064689 2.445564 13.938123 -24.956138 -36.159161 -8.264030 -13.239123 4.583416 51.603981 0.000000 0.000000 0.000000 7.125000 0.000000 0.000000 60.957559 75.726944 -47.444535
10.255068 16.492056 4.318444 177.344017 -3.009998 -158.432876 0.000000 0.000000 0.000000 -7.899146 -22.737301 -75.758244 21.020580 19.974967 92.985256 1.053303 -1.388046 -18.987501 1.888751 -8.618602 -24.616946 0.000000 0.000000 0.000000 18.897208 14.021428 -21.950387 -0.334248 -3.715543 10.277720 -0.770374 -0.250131 -16.680797 -2.224708 9.319350 -26.799444 -5.068011 -1.342496 -17.472577 0.140811 -0.675341 3.633467 2.842647 -0.748307 14.060425 -0.584691 -1.329236 -4.941964 2.747284 -3.918613 21.755979 0.613703 -2.234774 7.552988 0.000000 0.000000 0.000000 5.632946 5.657535 -24.551419 19.775847 -30.371333 5.417555 19.944827 -3.275382 11.353353 0.000000 0.000000 0.000000 -7.125000 0.000000 0.000000 -5.038130 17.950303 -3.252876 0.000000 0.000000 0.000000 -1.189820 2.138545 14.112799 -24.984244 -36.187912 -8.280580 -13.054409 4.514096 50.448934 0.000000 0.000000 0.000000 7.125000 0.000000 0.000000 56.929341 75.176912 -43.357420
10.259392 16.501615 4.239706 177.158751 -2.793794 -158.477072 0.000000 0.000000 0.000000 -7.441982 -22.786967 -77.747906 20.783147 19.985191 92.290401 1.060062 -0.900746 -19.184547 2.162397 -9.195680 -26.410055 0.000000 0.000000 0.000000 18.787324 14.097866 -21.516794 -0.330270 -3.693351 10.215529 -0.793897 -0.332319 -16.962833 -2.203257 9.277267 -26.666472 -5.323224 -1.229282 -17.066123 0.026199 -0.478754 3.637710 2.917107 -0.667953 13.805352 -0.479778 -1.422225 -5.731357 2.425161 -4.121370 22.761150 0.450384 -2.356335 8.025987 0.000000 0.000000 0.000000 5.738645 5.935347 -24.714995 19.646353 -30.213901 5.352219 20.796910 -3.828291 11.861135 0.000000 0.000000 0.000000 -7.125000 0.000000 0.000000 -4.454565 17.341393 -2.933224 0.000000 0.000000 0.000000 -1.315254 1.766440 14.568378 -25.163283 -36.370436 -8.386567 -13.340036 4.768645 51.238690 0.000000 0.000000 0.000000 7.125000 0.000000 0.000000 59.541352 75.626699 -46.085667
10.264425 16.502818 4.146782 177.357920 -2.727107 -158.517252 0.000000 0.000000 0.000000 -6.498887 -22.835166 -79.612731 20.442955 19.995165 91.295248 1.066368 -0.627028 -19.324800 2.131929 -9.132701 -26.213434 0.000000 0.000000 0.000000 19.161803 14.294362 -21.088484 -0.341786 -3.756520 10.392609 -0.850662 -0.229484 -17.516720 -2.160674 9.193072 -26.401176 -5.178521 -1.056112 -17.051345 0.002629 -0.272395 3.775240 2.867144 -0.565455 13.935597 -0.141137 -1.372938 -5.211525 2.347235 -3.893504 21.660460 0.409476 -2.200973 7.554362 0.000000 0.000000 0.000000 5.896723 5.989859 -24.807090 19.579384 -30.132314 5.318602 20.733939 -4.008640 12.027043 0.000000 0.000000 0.000000 -7.125000 0.000000 0.000000 -4.503526 17.171264 -2.982423 0.000000 0.000000 0.000000 -1.308115 1.283460 14.838475 -25.318751 -36.527995 -8.478912 -14.042631 5.208059 50.265463 0.000000 0.000000 0.000000 7.125000 0.000000 0.000000 55.625892 75.469617 -42.539949
10.263616 16.503759 4.053769 177.013661 -2.369315 -158.591179 0.000000 0.000000 0.000000 -6.328963 -22.894721 -80.936908 19.916802 19.999096 89.756817 1.076462 -0.704696 -19.393009 2.112331 -9.096191 -26.096762 0.000000 0.000000 0.000000 18.833276 14.343789 -20.456337 -0.320632 -3.639331 10.064105 -0.838128 -0.333062 -17.426284 -2.122449 9.116588 -26.160755 -5.572498 -0.959297 -16.899832 -0.172876 -0.045224 3.844239 2.957299 -0.487313 13.908102 -0.240304 -1.346752 -5.543559 2.312832 -3.918413 22.237257 0.401045 -2.231264 7.806842 0.000000 0.000000 0.000000 5.907039 5.890838 -24.548243 19.329381 -29.825632 5.193793 20.630562 -3.936649 11.561177 0.000000 0.000000 0.000000 -7.125000 0.000000 0.000000 -4.562387 17.673674 -2.971598 0.000000 0.000000 0.000000 -1.419125 0.925848 15.371334 -25.472698 -36.683173 -8.570707 -14.574604 5.404613 50.559109 0.000000 0.000000 0.000000 7.125000 0.000000 0.000000 56.317576 75.810318 -43.475223
